<svg fill="#100d12" width="64px" height="64px" viewBox="-51.2 -51.2 614.40 614.40" id="_x30_1" version="1.1" xml:space="preserve" xmlns="http://www.w3.org/2000/svg" xmlns:xlink="http://www.w3.org/1999/xlink" stroke="#100d12" stroke-width="0.00512" transform="matrix(1, 0, 0, 1, 0, 0)rotate(0)">

<g id="SVGRepo_bgCarrier" stroke-width="0" transform="translate(12.800000000000011,12.800000000000011), scale(0.95)">

<rect x="-51.2" y="-51.2" width="614.40" height="614.40" rx="307.2" fill="#8d05d6" strokewidth="0"/>

</g>

<g id="SVGRepo_tracerCarrier" stroke-linecap="round" stroke-linejoin="round"/>

<g id="SVGRepo_iconCarrier"> <g> <circle cx="240.156" cy="240.156" r="91.406"/> <path d="M256,0C114.615,0,0,114.615,0,256s114.615,256,256,256s256-114.615,256-256S397.385,0,256,0z M404.861,404.861 L404.861,404.861c-9.519,9.519-24.952,9.519-34.471,0l-49.871-49.871c-22.7,15.915-50.329,25.277-80.147,25.322 c-76.355,0.115-139.12-61.493-140.353-137.838c-1.28-79.242,63.214-143.736,142.455-142.456 c76.345,1.233,137.953,63.998,137.838,140.353c-0.045,29.817-9.407,57.447-25.322,80.147l49.871,49.871 C414.38,379.908,414.38,395.342,404.861,404.861z"/> </g> </g>

</svg>