<svg version="1.1" id="Icons" xmlns="http://www.w3.org/2000/svg" xmlns:xlink="http://www.w3.org/1999/xlink" viewBox="-3.2 -3.2 38.40 38.40" xml:space="preserve" width="64px" height="64px" fill="#25112d" stroke="#25112d" transform="rotate(0)matrix(1, 0, 0, 1, 0, 0)">
<g id="SVGRepo_bgCarrier" stroke-width="0" transform="translate(1.5999999999999996,1.5999999999999996), scale(0.9)">
<path transform="translate(-3.2, -3.2), scale(1.2)" d="M16,27.220128482207656C17.74810039059677,26.873366859533355,19.30530569146798,26.106961701692025,20.968421103718544,25.466535496654384C22.835894206419855,24.747416003585382,25.72982115727001,25.075278711053357,26.434160842683717,23.202181211675388C27.221877954331656,21.10735256208943,23.774957532885068,19.19569086367208,24.155739878108406,16.990286110644803C24.569390509635763,14.594515717644835,28.159843048513483,13.668798562425097,28.495923394435657,11.260921359986602C28.818690289835985,8.9484295449601,27.968953219705142,5.857172488822167,25.84502338311009,4.887265837359129C23.46793252562874,3.80175152606754,20.9272493437349,6.592447528349816,18.314100682448156,6.611324465483845C16.525061619729193,6.624248176414487,15.069365557014597,5.08232088297432,13.283323310867068,4.978009401272356C11.17015263942917,4.854592408028057,8.77358627001705,4.6575341669359815,7.102244780128373,5.956510558185434C5.43538723135207,7.2520020041499365,5.003550008607704,9.612864267107149,4.643398835990244,11.693009287854984C4.317500222987191,13.575319908087174,4.635818404718699,15.475297215215221,5.134926613528785,17.31925875844073C5.58918789554406,18.997532767616985,6.689082489262934,20.346289520995086,7.4134202241355815,21.926888081052088C8.293598229981544,23.847550255139396,8.07836511649234,26.558040089200485,9.876835099558258,27.666715979150126C11.644584629451375,28.75645409083174,13.96304093255406,27.624189504874412,16,27.220128482207656" fill="#ca22ec" strokewidth="0"/>
</g>
<g id="SVGRepo_tracerCarrier" stroke-linecap="round" stroke-linejoin="round" stroke="#fa0000" stroke-width="6.4"> <style type="text/css"> .st0{fill:none;stroke:#2a182f;stroke-width:1.6;stroke-linecap:round;stroke-linejoin:round;stroke-miterlimit:10;} </style> <circle class="st0" cx="12" cy="13" r="9"/> <path class="st0" d="M16,21l7,7c1.1,1.1,2.9,1.1,4,0l0,0c1.1-1.1,1.1-2.9,0-4l-7-7"/> <path class="st0" d="M9,10V16c0,0.7,0.9,1.2,1.5,0.8l5-3c0.6-0.4,0.6-1.2,0-1.6l-5-3C9.9,8.7,9,9.2,9,10z"/> </g>
<g id="SVGRepo_iconCarrier"> <style type="text/css"> .st0{fill:none;stroke:#2a182f;stroke-width:1.6;stroke-linecap:round;stroke-linejoin:round;stroke-miterlimit:10;} </style> <circle class="st0" cx="12" cy="13" r="9"/> <path class="st0" d="M16,21l7,7c1.1,1.1,2.9,1.1,4,0l0,0c1.1-1.1,1.1-2.9,0-4l-7-7"/> <path class="st0" d="M9,10V16c0,0.7,0.9,1.2,1.5,0.8l5-3c0.6-0.4,0.6-1.2,0-1.6l-5-3C9.9,8.7,9,9.2,9,10z"/> </g>
</svg>