<svg version="1.1" id="Icons" xmlns="http://www.w3.org/2000/svg"
    xmlns:xlink="http://www.w3.org/1999/xlink" viewBox="-16 -16 64.00 64.00" xml:space="preserve"
    width="256px" height="256px" fill="#ff1a1a" stroke="#ff1a1a">
<g id="SVGRepo_bgCarrier" stroke-width="0" transform="translate(5.6,5.6), scale(0.65)">
<path transform="translate(-16, -16), scale(2)" d="M16,30.959122485170763C18.751832203957402,30.907575150752034,20.539923506167455,28.15201926030432,22.905653505489482,26.745406599785966C25.381500126345657,25.273320941914644,28.874843231405706,25.04038133874309,30.229661716829973,22.49846876242028C31.587204379384104,19.951445080675587,30.87930472998022,16.65876650670914,29.681301124506923,14.032925864686886C28.617595592914803,11.70144605674842,25.8417231177552,10.859148944958836,24.073228097597024,9.00450803188693C22.421931356460597,7.272774291715014,21.744571730702347,4.705720952912036,19.66262924657821,3.5262303141460425C17.33476877903019,2.207418843241544,14.552809381011613,1.6188227782020832,11.9251065695819,2.1221874441914146C9.176308190889912,2.6487492653166407,6.77049745838845,4.301006506563993,4.873891114588698,6.359171770779904C2.9391692238069673,8.458699384690235,1.416836416457218,11.020635936230775,1.1095262322588368,13.859073084897272C0.8071781317520358,16.651678486328603,1.7616817478032927,19.43242165345685,3.197075206031263,21.846899841815542C4.537598002325476,24.101795901217763,6.788830401477803,25.486145783315308,8.926055500103704,27.00727249858121C11.172083234548019,28.605837288171216,13.24366472659489,31.010754171108598,16,30.959122485170763" fill="#ffaad2" strokewidth="0"/>
</g>
<g id="SVGRepo_tracerCarrier" stroke-linecap="round" stroke-linejoin="round" stroke="#595959" stroke-width="1.8559999999999999"/>
<g id="SVGRepo_iconCarrier"> <style type="text/css"> .st0{fill:none;stroke:#fef1f7;stroke-width:1.44;stroke-linecap:round;stroke-linejoin:round;stroke-miterlimit:10;} </style> <circle class="st0" cx="12" cy="13" r="9"/> <path class="st0" d="M16,21l7,7c1.1,1.1,2.9,1.1,4,0l0,0c1.1-1.1,1.1-2.9,0-4l-7-7"/> <path class="st0" d="M9,10V16c0,0.7,0.9,1.2,1.5,0.8l5-3c0.6-0.4,0.6-1.2,0-1.6l-5-3C9.9,8.7,9,9.2,9,10z"/> </g>
</svg>